<?xml version="1.0" encoding="UTF-8" standalone="no"?>
<svg xmlns:rdf="http://www.w3.org/1999/02/22-rdf-syntax-ns#" xmlns="http://www.w3.org/2000/svg" height="512" width="768" version="1.1" xmlns:cc="http://creativecommons.org/ns#" xmlns:dc="http://purl.org/dc/elements/1.1/" viewBox="0 0 768.00001 511.99999">
<g transform="translate(-933.71 -584.21)">
<g>
<path d="m1029.8 713.16h-30.1v255.5h30.1v-255.5z"/>
<path d="m1161.3 835.66c-11.55 0-44.45-0.35-44.45-0.35v-95.2h52.85c31.5 0 54.25 12.25 54.25 42.35 0 25.55-4.55 53.2-62.65 53.2zm-44.45 133v-109.2c12.95 1.05 31.15 2.45 41.65 2.45 75.6 0 96.25-32.55 96.25-80.15 0-49.35-37.1-68.6-85.75-68.6h-82.6v255.5h30.45z"/>
<path d="m1422.7 825.51h-105.35v-86.1h108.85l2.45-26.25h-141.4v255.5h30.1v-118.65h105.35v-24.5z"/>
<path d="m1464.9 927.01c22.75 11.2 52.15 19.6 84.7 19.6 36.4 0 55.65-16.1 55.65-50.75 0-20.65-8.4-34.65-40.95-42.7l-50.4-12.6c-35.35-8.75-57.4-27.65-57.4-61.6 0-49.7 37.1-71.05 93.1-71.05 31.15 0 59.15 7.7 76.65 18.55l-8.75 23.8c-13.65-7.35-40.6-16.1-68.25-16.1-40.6 0-61.95 13.65-61.95 43.05 0 19.95 13.3 30.8 37.8 36.75l47.95 11.55c38.15 9.1 62.65 27.65 62.65 69.3 0 53.2-35.7 77.7-87.85 77.7-44.45 0-76.3-11.55-91.7-21l8.75-24.5z"/>
</g>
</g>
</svg>
